<?xml version="1.0" encoding="UTF-8" standalone="no"?>
<!-- Created with Inkscape (http://www.inkscape.org/) -->

<svg
   xmlns:dc="http://purl.org/dc/elements/1.1/"
   xmlns:cc="http://creativecommons.org/ns#"
   xmlns:rdf="http://www.w3.org/1999/02/22-rdf-syntax-ns#"
   xmlns:svg="http://www.w3.org/2000/svg"
   xmlns="http://www.w3.org/2000/svg"
   xmlns:sodipodi="http://sodipodi.sourceforge.net/DTD/sodipodi-0.dtd"
   xmlns:inkscape="http://www.inkscape.org/namespaces/inkscape"
   width="184"
   height="128"
   id="svg2"
   version="1.1"
   inkscape:version="0.92.1 r"
   sodipodi:docname="icon-library.svg">
  <defs
     id="defs4" />
  <sodipodi:namedview
     id="base"
     pagecolor="#ffffff"
     bordercolor="#666666"
     borderopacity="1.0"
     inkscape:pageopacity="0.0"
     inkscape:pageshadow="2"
     inkscape:zoom="2.8"
     inkscape:cx="50.613606"
     inkscape:cy="84.740245"
     inkscape:document-units="px"
     inkscape:current-layer="layer1"
     showgrid="false"
     inkscape:window-width="1920"
     inkscape:window-height="1004"
     inkscape:window-x="0"
     inkscape:window-y="48"
     inkscape:window-maximized="1"
     inkscape:pagecheckerboard="true" />
  <metadata
     id="metadata7">
    <rdf:RDF>
      <cc:Work
         rdf:about="">
        <dc:format>image/svg+xml</dc:format>
        <dc:type
           rdf:resource="http://purl.org/dc/dcmitype/StillImage" />
        <dc:title></dc:title>
      </cc:Work>
    </rdf:RDF>
  </metadata>
  <g
     inkscape:label="Layer 1"
     inkscape:groupmode="layer"
     id="layer1"
     transform="translate(0,-924.36218)">
    <path
       inkscape:connector-curvature="0"
       id="path3298"
       style="font-size:128px;font-style:normal;font-variant:normal;font-weight:normal;font-stretch:normal;line-height:125%;letter-spacing:0px;word-spacing:0px;fill:#ffffff;fill-opacity:1;stroke:none;font-family:DejaVu Serif;-inkscape-font-specification:DejaVu Serif"
       d="m 121.54688,1030.0106 c -2e-5,-2.3333 0.79165,-4.3125 2.375,-5.9375 1.62498,-1.625 3.60414,-2.4375 5.93749,-2.4375 2.33331,0 4.29165,0.8125 5.875,2.4375 1.62498,1.625 2.43748,3.6042 2.4375,5.9375 -2e-5,2.3334 -0.79169,4.3125 -2.375,5.9375 -1.58335,1.5834 -3.56252,2.375 -5.9375,2.375 -2.37501,0 -4.35418,-0.7916 -5.93749,-2.375 -1.58335,-1.625 -2.37502,-3.6041 -2.375,-5.9375 m 0,-40.74998 c -2e-5,-2.33328 0.79165,-4.29162 2.375,-5.875 1.62498,-1.62495 3.60414,-2.43744 5.93749,-2.4375 2.37498,6e-5 4.35415,0.79172 5.9375,2.375 1.58331,1.58339 2.37498,3.56255 2.375,5.9375 -2e-5,2.37504 -0.79169,4.35421 -2.375,5.9375 -1.58335,1.58337 -3.56252,2.37504 -5.9375,2.375 -2.33335,4e-5 -4.31251,-0.79163 -5.93749,-2.375 -1.58335,-1.62496 -2.37502,-3.60412 -2.375,-5.9375" />
    <path
       inkscape:connector-curvature="0"
       id="path3300"
       style="font-size:128px;font-style:normal;font-variant:normal;font-weight:normal;font-stretch:normal;line-height:125%;letter-spacing:0px;word-spacing:0px;fill:#ffffff;fill-opacity:1;stroke:none;font-family:DejaVu Serif;-inkscape-font-specification:DejaVu Serif"
       d="m 164.79687,1030.0106 c -1e-5,-2.3333 0.79166,-4.3125 2.375,-5.9375 1.62499,-1.625 3.60415,-2.4375 5.9375,-2.4375 2.33331,0 4.29165,0.8125 5.875,2.4375 1.62498,1.625 2.43748,3.6042 2.4375,5.9375 -2e-5,2.3334 -0.79169,4.3125 -2.375,5.9375 -1.58335,1.5834 -3.56252,2.375 -5.9375,2.375 -2.37501,0 -4.35418,-0.7916 -5.9375,-2.375 -1.58334,-1.625 -2.37501,-3.6041 -2.375,-5.9375 m 0,-40.74998 c -1e-5,-2.33328 0.79166,-4.29162 2.375,-5.875 1.62499,-1.62495 3.60415,-2.43744 5.9375,-2.4375 2.37498,6e-5 4.35415,0.79172 5.9375,2.375 1.58331,1.58339 2.37498,3.56255 2.375,5.9375 -2e-5,2.37504 -0.79169,4.35421 -2.375,5.9375 -1.58335,1.58337 -3.56252,2.37504 -5.9375,2.375 -2.33335,4e-5 -4.31251,-0.79163 -5.9375,-2.375 -1.58334,-1.62496 -2.37501,-3.60412 -2.375,-5.9375" />
    <text
       xml:space="preserve"
       style="font-style:normal;font-weight:normal;font-size:142.77987671px;line-height:89.23742676px;font-family:sans-serif;letter-spacing:0px;word-spacing:0px;fill:#ffffff;fill-opacity:1;stroke:none;stroke-width:3.56949687;"
       x="52.469429"
       y="1060.5552"
       id="text825"
       transform="scale(1.0236396,0.97690634)"><tspan
         sodipodi:role="line"
         id="tspan823"
         x="52.469429"
         y="1060.5552"
         style="font-style:italic;font-variant:normal;font-weight:500;font-stretch:normal;font-size:142.77987671px;font-family:Kerkis;-inkscape-font-specification:'Kerkis, Medium Italic';font-variant-ligatures:normal;font-variant-caps:normal;font-variant-numeric:normal;font-feature-settings:normal;text-align:start;writing-mode:lr-tb;text-anchor:start;stroke-width:3.56949687;fill:#ffffff;fill-opacity:1;">l</tspan></text>
  </g>
</svg>
